/* XPM */
static char * gem_g_xpm[] = {
"23 19 166 2",
"  	c None",
". 	c #F7DEFFFFEFBE",
"X 	c #D75CF7DECF3C",
"o 	c #9E79DF7D8617",
"O 	c #6185AAAA4924",
"+ 	c #6185BAEA4924",
"@ 	c #30C279E72081",
"# 	c #30C27DF71861",
"$ 	c #28A275D61040",
"% 	c #08203CF30000",
"& 	c #00002CB20000",
"* 	c #F7DEFFFFF7DE",
"= 	c #F7DEFBEEEFBE",
"- 	c #EFBEFBEEEFBE",
"; 	c #C71BDF7DBEFB",
": 	c #8E38CB2B79E7",
"> 	c #9E79E79D8617",
", 	c #8617D75C69A6",
"< 	c #38E37DF728A2",
"1 	c #28A279E71861",
"2 	c #208175D61040",
"3 	c #082038E30000",
"4 	c #082041030000",
"5 	c #C71BDF7DC71B",
"6 	c #AEBADB6C9E79",
"7 	c #AEBAE79D9E79",
"8 	c #A699E79D8E38",
"9 	c #9658DF7D79E7",
"0 	c #492496584103",
"q 	c #208179E71040",
"w 	c #208171C61040",
"e 	c #104051440820",
"r 	c #10404D340820",
"t 	c #000030C20000",
"y 	c #000034D30000",
"u 	c #A699BEFBA699",
"i 	c #9E79BAEA9E79",
"p 	c #B6DACB2BB6DA",
"a 	c #C71BDB6CBEFB",
"s 	c #AEBAD34CA699",
"d 	c #BEFBEFBEAEBA",
"f 	c #B6DAEBADA699",
"g 	c #AEBAE79D9658",
"h 	c #9E79E38D8617",
"j 	c #5965A2894924",
"k 	c #28A27DF71040",
"l 	c #104061850820",
"z 	c #186165950820",
"x 	c #000041030000",
"c 	c #082045140000",
"v 	c #8E38A6998E38",
"b 	c #D75CE79DD75C",
"n 	c #A699C30B9E79",
"m 	c #618586175965",
"M 	c #618592485144",
"N 	c #8E38BEFB8617",
"B 	c #8E38BAEA79E7",
"V 	c #8617BAEA71C6",
"C 	c #79E7BAEA69A6",
"Z 	c #69A6B2CA5965",
"A 	c #186161850820",
"S 	c #10405D750820",
"D 	c #104055550820",
"F 	c #000038E30000",
"G 	c #082051440000",
"H 	c #000028A20000",
"J 	c #9E79B2CA9E79",
"K 	c #DF7DEFBEDF7D",
"L 	c #E79DF7DEDF7D",
"P 	c #AEBACF3CA699",
"I 	c #8617BEFB79E7",
"U 	c #9E79D75C9658",
"Y 	c #9E79D75C8E38",
"T 	c #8E38CF3C8617",
"R 	c #71C6AEBA6185",
"E 	c #000024920000",
"W 	c #C71BDB6CC71B",
"Q 	c #EFBEFBEEE79D",
"! 	c #A699C71B9E79",
"~ 	c #9658D34C8617",
"^ 	c #A699E79D9E79",
"/ 	c #A699E79D9658",
"( 	c #9E79E38D9658",
") 	c #79E7BEFB69A6",
"_ 	c #20818A281861",
"` 	c #208182071040",
"' 	c #186179E71040",
"] 	c #71C6BAEA6185",
"[ 	c #9658B6DA9658",
"{ 	c #D75CEFBED75C",
"} 	c #9658BEFB9658",
"| 	c #8E38D34C79E7",
" .	c #9E79E38D8E38",
"..	c #9658DF7D8E38",
"X.	c #8E38DF7D8617",
"o.	c #69A6BAEA6185",
"O.	c #18616DB61040",
"+.	c #18617DF71040",
"@.	c #186175D61040",
"#.	c #104071C60820",
"$.	c #082055550820",
"%.	c #082049240000",
"&.	c #00003CF30000",
"*.	c #5965CF3C38E3",
"=.	c #5965BAEA38E3",
"-.	c #8E38B6DA8617",
";.	c #8617AEBA79E7",
":.	c #79E7C30B69A6",
">.	c #8E38DF7D79E7",
",.	c #8E38DB6C79E7",
"<.	c #8617DB6C71C6",
"1.	c #79E7D75C71C6",
"2.	c #6185B2CA5144",
"3.	c #186171C60820",
"4.	c #08205D750820",
"5.	c #000045140000",
"6.	c #5144CB2B30C2",
"7.	c #4924BEFB28A2",
"8.	c #71C6BEFB69A6",
"9.	c #30C296581861",
"0.	c #38E3924828A2",
"q.	c #30C292482081",
"w.	c #41039E7938E3",
"e.	c #41039E7930C2",
"r.	c #28A271C62081",
"t.	c #000020810000",
"y.	c #4924C71B30C2",
"u.	c #4103B2CA28A2",
"i.	c #28A28E381861",
"p.	c #38E3BEFB28A2",
"a.	c #38E3BAEA2081",
"s.	c #30C2AEBA2081",
"d.	c #28A2AAAA1861",
"f.	c #186186171040",
"g.	c #4103C30B28A2",
"h.	c #28A29A691861",
"j.	c #28A296581861",
"k.	c #30C2BAEA2081",
"l.	c #30C2B6DA2081",
"z.	c #186182071040",
"x.	c #082055550000",
"c.	c #000051440000",
"v.	c #00004D340000",
"b.	c #20818E381861",
"n.	c #28A2A2891861",
"m.	c #28A2B6DA2081",
"M.	c #28A2B6DA1861",
"N.	c #10407DF70820",
"B.	c #082065950820",
"V.	c #082061850000",
"C.	c #000061850000",
"Z.	c #28A2AEBA1861",
"A.	c #28A2B2CA1861",
"S.	c #2081B2CA1861",
"D.	c #104079E70820",
"F.	c #082075D60820",
"G.	c #082079E70820",
"H.	c #18618E381040",
"J.	c #10407DF71040",
"K.	c #2081AAAA1861",
"L.	c #104086170820",
"P.	c #08208E380820",
"I.	c #10408A281040",
"U.	c #08207DF70820",
"Y.	c #082086170820",
"T.	c #000069A60000",
"                                              ",
"            . X o O + @ # $ % &               ",
"        * = - ; : > , < 1 2 3 3 4 &           ",
"    . - - - 5 6 7 8 9 0 2 q w 3 e r t y       ",
"  u i p a a s d f g h j 2 k q l % z l x c     ",
"  v - b n m M N B V C Z z A S D F G F t H     ",
"  J K = L P I U U Y T R S A l S 4 4 F y E     ",
"    W = Q ! ~ ^ ^ / ( ) q _ ` ' S c F t       ",
"    ] [ { } |  . ...X.o.O.+.@.#.$.%.&.y       ",
"    *.=.-.;.:.>.,.<.1.2.l 3.4.%.&.F F 5.      ",
"      6.7.8.9.0.q.w.e.r.& H t.H & y F         ",
"        y.u.i.p.a.s.d.f.5.%.x &.&.&.          ",
"          g.h.j.a.k.l.z.x.x.c.v.c.            ",
"            a.b.n.m.M.N.B.B.V.C.              ",
"              Z.f.A.S.D.F.G.G.                ",
"                H.J.K.D.L.P.                  ",
"                  N.I.U.Y.                    ",
"                    U.T.                      ",
"                                              "};
