/* XPM */
static char * gem_r_xpm[] = {
"23 19 159 2",
"  	c None",
". 	c #FFFFF3CEEFBE",
"X 	c #F7DED75CCF3C",
"o 	c #DF7D9A698617",
"O 	c #AEBA65954924",
"+ 	c #BEFB65954924",
"@ 	c #79E734D32081",
"# 	c #79E730C21861",
"$ 	c #71C628A21040",
"% 	c #38E30C300000",
"& 	c #28A204100000",
"* 	c #FFFFF7DEF7DE",
"= 	c #FFFFEFBEEFBE",
"- 	c #DF7DC30BBEFB",
"; 	c #CF3C8A2879E7",
": 	c #E79D9A698617",
"> 	c #D75C820769A6",
", 	c #79E738E328A2",
"< 	c #79E728A21861",
"1 	c #71C624921040",
"2 	c #38E308200000",
"3 	c #41030C300000",
"4 	c #DF7DC71BC71B",
"5 	c #DF7DAAAA9E79",
"6 	c #E79DAEBA9E79",
"7 	c #E79DA2898E38",
"8 	c #DF7D924879E7",
"9 	c #96584D344103",
"0 	c #79E724921040",
"q 	c #71C620811040",
"w 	c #514410400820",
"e 	c #492410400820",
"r 	c #30C204100000",
"t 	c #BEFBA699A699",
"y 	c #BEFB9E799E79",
"u 	c #CF3CB2CAB6DA",
"i 	c #D75CAEBAA699",
"p 	c #EFBEBAEAAEBA",
"a 	c #EFBEB6DAA699",
"s 	c #E79DAAAA9658",
"d 	c #A69959654924",
"f 	c #79E728A21040",
"g 	c #618514510820",
"h 	c #618518610820",
"j 	c #410304100000",
"k 	c #410308200000",
"l 	c #A6998E388E38",
"z 	c #E79DD34CD75C",
"x 	c #C71BA6999E79",
"c 	c #861761855965",
"v 	c #965861855144",
"b 	c #BEFB8A288617",
"n 	c #BEFB8A2879E7",
"m 	c #BEFB820771C6",
"M 	c #BEFB79E769A6",
"N 	c #B6DA69A65965",
"B 	c #61851C710820",
"V 	c #596514510820",
"C 	c #38E304100000",
"Z 	c #51440C300000",
"A 	c #30C200000000",
"S 	c #28A200000000",
"D 	c #B6DA9A699E79",
"F 	c #EFBEDF7DDF7D",
"G 	c #F7DEE38DDF7D",
"H 	c #CF3CAEBAA699",
"J 	c #BEFB861779E7",
"K 	c #D75C9E799658",
"L 	c #D75C9A698E38",
"P 	c #CF3C8E388617",
"I 	c #AEBA71C66185",
"U 	c #596510400820",
"Y 	c #208100000000",
"T 	c #FFFFEBADE79D",
"R 	c #C71BA2899E79",
"E 	c #D75C96588617",
"W 	c #E79DA6999E79",
"Q 	c #E79DA6999658",
"! 	c #E79D9E799658",
"~ 	c #79E720811040",
"^ 	c #8E3824921861",
"/ 	c #861720811040",
"( 	c #79E718611040",
") 	c #BEFB75D66185",
"_ 	c #B6DA96589658",
"` 	c #EFBED75CD75C",
"' 	c #BEFB96589658",
"] 	c #D75C8E3879E7",
"[ 	c #E79D9E798E38",
"{ 	c #E79D9A698E38",
"} 	c #DF7D96588E38",
"| 	c #DF7D8E388617",
" .	c #BEFB6DB66185",
"..	c #69A618611040",
"X.	c #79E71C711040",
"o.	c #71C618611040",
"O.	c #71C614510820",
"+.	c #51440C300820",
"@.	c #492408200000",
"#.	c #CF3C5D7538E3",
"$.	c #BEFB596538E3",
"%.	c #B6DA8E388617",
"&.	c #AEBA820779E7",
"*.	c #C71B79E769A6",
"=.	c #DF7D8E3879E7",
"-.	c #DF7D8A2879E7",
";.	c #DF7D861771C6",
":.	c #D75C7DF771C6",
">.	c #B6DA61855144",
",.	c #71C618610820",
"<.	c #59650C300820",
"1.	c #38E300000000",
"2.	c #410300000000",
"3.	c #CF3C555530C2",
"4.	c #BEFB492428A2",
"5.	c #BEFB75D669A6",
"6.	c #965830C21861",
"7.	c #965838E328A2",
"8.	c #965834D32081",
"9.	c #9E79451438E3",
"0.	c #9E79410330C2",
"q.	c #71C62CB22081",
"w.	c #C71B4D3430C2",
"e.	c #B6DA410328A2",
"r.	c #8E3828A21861",
"t.	c #BEFB3CF328A2",
"y.	c #BEFB38E32081",
"u.	c #AEBA30C22081",
"i.	c #AEBA2CB21861",
"p.	c #86171C711040",
"a.	c #C71B410328A2",
"s.	c #9E792CB21861",
"d.	c #965828A21861",
"f.	c #BEFB34D32081",
"g.	c #B6DA30C22081",
"h.	c #861718611040",
"j.	c #514408200000",
"k.	c #514404100000",
"l.	c #492404100000",
"z.	c #514400000000",
"x.	c #A69928A21861",
"c.	c #B6DA2CB22081",
"v.	c #B6DA28A21861",
"b.	c #79E714510820",
"n.	c #61850C300820",
"m.	c #618508200000",
"M.	c #618504100000",
"N.	c #B6DA24921861",
"B.	c #79E710400820",
"V.	c #71C60C300820",
"C.	c #79E70C300820",
"Z.	c #8E381C711040",
"A.	c #79E714511040",
"S.	c #AEBA20811861",
"D.	c #861710400820",
"F.	c #8E380C300820",
"G.	c #8E3810401040",
"H.	c #86170C300820",
"J.	c #69A604100000",
"                                              ",
"            . X o O + @ # $ % &               ",
"        * . = - ; : > , < 1 % 2 3 &           ",
"    . = = = 4 5 6 7 8 9 1 0 q 2 w e r r       ",
"  t y u - - i p a s : d 1 f 0 g 2 h g j k     ",
"  l = z x c v b n m M N B h V w C Z C A S     ",
"  D F . G H J K K L P I V h g U k k C A Y     ",
"    4 . T R E W W Q ! M ~ ^ / ( U k C A       ",
"    ) _ ` ' ] [ { } |  ...X.o.O.+.@.C A       ",
"    #.$.%.&.*.=.-.;.:.>.g ,.<.@.1.1.1.2.      ",
"      3.4.5.6.7.8.9.0.q.S S Y S S A 1.        ",
"        w.e.r.t.y.u.i.p.j @.j 1.1.1.          ",
"          a.s.d.y.f.g.h.j.j.k.l.z.            ",
"            y.^ x.c.v.b.n.n.m.M.              ",
"              i.p.v.N.B.V.C.C.                ",
"                Z.A.S.B.D.F.                  ",
"                  B.G.C.H.                    ",
"                    C.J.                      ",
"                                              "};
