/* XPM */
static char * gem_b_xpm[] = {
"23 19 152 2",
"  	c None",
". 	c #F7DEEFBEFFFF",
"X 	c #D75CCB2BF7DE",
"o 	c #9E798207DF7D",
"O 	c #61854D34AEBA",
"+ 	c #61854D34BEFB",
"@ 	c #30C2208179E7",
"# 	c #30C2186179E7",
"$ 	c #28A2145171C6",
"% 	c #0820041038E3",
"& 	c #0000000028A2",
"* 	c #F7DEF3CEFFFF",
"= 	c #F7DEEBADFFFF",
"- 	c #EFBEEBADFFFF",
"; 	c #C71BBAEADF7D",
": 	c #8E3879E7CF3C",
"> 	c #9E798207E79D",
", 	c #861769A6D75C",
"< 	c #38E328A279E7",
"1 	c #28A2186179E7",
"2 	c #2081145171C6",
"3 	c #0820000038E3",
"4 	c #082004104103",
"5 	c #C71BC30BDF7D",
"6 	c #AEBA9E79DF7D",
"7 	c #AEBA9E79E79D",
"8 	c #A6998E38E79D",
"9 	c #965879E7DF7D",
"0 	c #492441039658",
"q 	c #2081145179E7",
"w 	c #2081104071C6",
"e 	c #104008205144",
"r 	c #104008204924",
"t 	c #0000000030C2",
"y 	c #A699A699BEFB",
"u 	c #9E799A69BEFB",
"i 	c #B6DAB2CACF3C",
"p 	c #C71BBEFBDF7D",
"a 	c #AEBAA289D75C",
"s 	c #BEFBAEBAEFBE",
"d 	c #B6DAA699EFBE",
"f 	c #AEBA9658E79D",
"g 	c #9E798617E79D",
"h 	c #59654D34A699",
"j 	c #28A2145179E7",
"k 	c #10400C306185",
"l 	c #18610C306185",
"z 	c #000000004103",
"x 	c #8E388E38A699",
"c 	c #D75CD34CE79D",
"v 	c #A6999E79C71B",
"b 	c #618559658617",
"n 	c #618555559658",
"m 	c #8E388207BEFB",
"M 	c #8E387DF7BEFB",
"N 	c #861775D6BEFB",
"B 	c #79E76DB6BEFB",
"V 	c #69A65965B6DA",
"C 	c #10400C305965",
"Z 	c #0000000038E3",
"A 	c #082004105144",
"S 	c #9E799A69B6DA",
"D 	c #DF7DDB6CEFBE",
"F 	c #E79DDF7DF7DE",
"G 	c #AEBAA699CF3C",
"H 	c #861779E7BEFB",
"J 	c #9E799248D75C",
"K 	c #9E798E38D75C",
"L 	c #8E388617CF3C",
"P 	c #71C66595AEBA",
"I 	c #104008205965",
"U 	c #082000004103",
"Y 	c #000000002081",
"T 	c #EFBEE38DFFFF",
"R 	c #96588617D75C",
"E 	c #A6999A69E79D",
"W 	c #A6999658E79D",
"Q 	c #9E799248E79D",
"! 	c #208118618E38",
"~ 	c #208114518617",
"^ 	c #1861104079E7",
"/ 	c #71C66595BEFB",
"( 	c #96589248B6DA",
") 	c #D75CD34CEFBE",
"_ 	c #96589248BEFB",
"` 	c #8E387DF7D75C",
"' 	c #9E798E38E79D",
"] 	c #9E798A28E79D",
"[ 	c #96588A28DF7D",
"{ 	c #8E388207DF7D",
"} 	c #69A66185BEFB",
"| 	c #1861104069A6",
" .	c #1861104071C6",
"..	c #10400C3071C6",
"X.	c #082008205144",
"o.	c #082004104924",
"O.	c #596538E3CF3C",
"+.	c #59653CF3BEFB",
"@.	c #8E388617B6DA",
"#.	c #861779E7AEBA",
"$.	c #79E769A6C71B",
"%.	c #8E387DF7DF7D",
"&.	c #861775D6DF7D",
"*.	c #79E771C6D75C",
"=.	c #61855555B6DA",
"-.	c #18610C3071C6",
";.	c #082008205965",
":.	c #514434D3CF3C",
">.	c #49242CB2BEFB",
",.	c #71C669A6BEFB",
"<.	c #30C21C719658",
"1.	c #38E328A29658",
"2.	c #30C224929658",
"3.	c #410338E39E79",
"4.	c #410334D39E79",
"5.	c #28A2249271C6",
"6.	c #492430C2C71B",
"7.	c #410328A2B6DA",
"8.	c #28A218618E38",
"9.	c #38E328A2BEFB",
"0.	c #38E32492BEFB",
"q.	c #30C22081AEBA",
"w.	c #28A21C71AEBA",
"e.	c #186114518617",
"r.	c #410328A2C71B",
"t.	c #28A21C719E79",
"y.	c #28A218619658",
"u.	c #30C22081BEFB",
"i.	c #30C22081B6DA",
"p.	c #186110408617",
"a.	c #000004105144",
"s.	c #000000004924",
"d.	c #000000005144",
"f.	c #28A21C71A699",
"g.	c #28A22081B6DA",
"h.	c #28A21C71B6DA",
"j.	c #10400C3079E7",
"k.	c #082008206185",
"l.	c #082004106185",
"z.	c #000004106185",
"x.	c #20811C71B6DA",
"c.	c #0820082071C6",
"v.	c #08200C3079E7",
"b.	c #0820082079E7",
"n.	c #186110408E38",
"m.	c #1040104079E7",
"M.	c #20811861AEBA",
"N.	c #10400C308617",
"B.	c #08200C308E38",
"V.	c #104010408E38",
"C.	c #08200C308617",
"Z.	c #0000041069A6",
"                                              ",
"            . X o O + @ # $ % &               ",
"        * = - ; : > , < 1 2 % 3 4 &           ",
"    . - - - 5 6 7 8 9 0 2 q w 3 e r t t       ",
"  y u i p p a s d f g h 2 j q k 3 l k z 4     ",
"  x - c v b n m M N B V l l C e Z A Z t &     ",
"  S D . F G H J J K L P C l k I U U Z t Y     ",
"    5 . T v R E E W Q B q ! ~ ^ I 4 Z t       ",
"    / ( ) _ ` ' ] [ { } | ^  ...X.o.Z t       ",
"    O.+.@.#.$.%.%.&.*.=.k -.;.o.Z Z Z z       ",
"      :.>.,.<.1.2.3.4.5.& & Y & & t Z         ",
"        6.7.8.9.0.q.w.e.z o.z Z Z Z           ",
"          r.t.y.0.u.i.p.A A a.s.d.            ",
"            0.! f.g.h.j.k.k.l.z.              ",
"              w.p.h.x.j.c.v.b.                ",
"                n.m.M.j.N.B.                  ",
"                  j.V.v.C.                    ",
"                    b.Z.                      ",
"                                              "};
