/* XPM */
static char * gemvt_xpm[] = {
"48 48 313 2",
"  	c None",
". 	c #D75CD75CCF3C",
"X 	c #EFBEEBADDF7D",
"o 	c #E79DE79DDF7D",
"O 	c #E79DE38DD75C",
"+ 	c #DF7DDF7DD75C",
"@ 	c #DF7DDB6CD75C",
"# 	c #DF7DD75CCF3C",
"$ 	c #D75CD34CC71B",
"% 	c #D75CCF3CC71B",
"& 	c #CF3CCF3CC71B",
"* 	c #CF3CCB2BBEFB",
"= 	c #CF3CC71BBEFB",
"- 	c #C71BC71BBEFB",
"; 	c #C71BC30BBEFB",
": 	c #C71BBEFBB6DA",
"> 	c #BEFBBEFBB6DA",
", 	c #BEFBBAEAB6DA",
"< 	c #BEFBB6DAAEBA",
"1 	c #B6DAAEBAA699",
"2 	c #9E799A699658",
"3 	c #8E388E388617",
"4 	c #79E779E771C6",
"5 	c #BEFBBAEAAEBA",
"6 	c #BEFBB2CAAEBA",
"7 	c #AEBAAEBAA699",
"8 	c #AEBAA699A699",
"9 	c #A699A2899658",
"0 	c #8617820779E7",
"q 	c #B6DAB2CAB6DA",
"w 	c #79E779E779E7",
"e 	c #71C675D671C6",
"r 	c #71C671C671C6",
"t 	c #69A66DB669A6",
"y 	c #69A669A669A6",
"u 	c #618565956185",
"i 	c #618561856185",
"p 	c #59655D755965",
"a 	c #596559655965",
"s 	c #514455555144",
"d 	c #514451445144",
"f 	c #49244D344924",
"g 	c #492449244924",
"h 	c #492445144924",
"j 	c #410341034103",
"k 	c #38E33CF338E3",
"l 	c #79E77DF779E7",
"z 	c #A6999E799658",
"x 	c #96588A288617",
"c 	c #000000000000",
"v 	c #8E388E388E38",
"b 	c #C71BC30BC71B",
"n 	c #9E799A699E79",
"m 	c #965896589658",
"M 	c #8E388A288E38",
"N 	c #861782078617",
"B 	c #861786178617",
"V 	c #38E338E338E3",
"C 	c #38E334D338E3",
"Z 	c #965892488E38",
"A 	c #B6DAB6DAB6DA",
"S 	c #E79DE79DE79D",
"D 	c #A699A699A699",
"F 	c #30C234D330C2",
"G 	c #965896588E38",
"H 	c #BEFBC30BBEFB",
"J 	c #965892489658",
"K 	c #9E799E799E79",
"L 	c #410338E34103",
"P 	c #30C230C230C2",
"I 	c #9E799A698E38",
"U 	c #B6DABAEAB6DA",
"Y 	c #28A230C228A2",
"T 	c #96588E388E38",
"R 	c #41033CF34103",
"E 	c #28A22CB228A2",
"W 	c #8E388A288617",
"Q 	c #E79DDF7DD75C",
"! 	c #208128A22081",
"~ 	c #96588E388617",
"^ 	c #208124922081",
"/ 	c #8E3886178617",
"( 	c #208120812081",
") 	c #8E38820779E7",
"_ 	c #DF7DDB6CCF3C",
"` 	c #18611C711861",
"' 	c #8E38861779E7",
"] 	c #86177DF779E7",
"[ 	c #28A228A228A2",
"{ 	c #186118611861",
"} 	c #861779E779E7",
"| 	c #C71BCF3CC71B",
" .	c #D75CF7DECF3C",
"..	c #9E79DF7D8617",
"X.	c #6185AAAA4924",
"o.	c #6185BAEA4924",
"O.	c #30C279E72081",
"+.	c #30C27DF71861",
"@.	c #28A275D61040",
"#.	c #08203CF30000",
"$.	c #082028A20000",
"%.	c #69A669A66185",
"&.	c #F7DEFBEEEFBE",
"*.	c #EFBEFBEEEFBE",
"=.	c #C71BDF7DBEFB",
"-.	c #8E38CB2B79E7",
";.	c #9E79E79D8617",
":.	c #8617D75C69A6",
">.	c #38E37DF728A2",
",.	c #28A279E71861",
"<.	c #208175D61040",
"1.	c #082038E30000",
"2.	c #082041030000",
"3.	c #18613CF31861",
"4.	c #000004100000",
"5.	c #C71BD34CC71B",
"6.	c #C71BDF7DC71B",
"7.	c #AEBADB6C9E79",
"8.	c #AEBAE79D9E79",
"9.	c #A699E79D8E38",
"0.	c #9658DF7D79E7",
"q.	c #492496584103",
"w.	c #208179E71040",
"e.	c #208171C61040",
"r.	c #104051440820",
"t.	c #10404D340820",
"y.	c #000030C20000",
"u.	c #00002CB20000",
"i.	c #A699BEFBA699",
"p.	c #9E79BAEA9E79",
"a.	c #B6DACB2BB6DA",
"s.	c #C71BDB6CBEFB",
"d.	c #AEBAD34CA699",
"f.	c #BEFBEFBEAEBA",
"g.	c #B6DAEBADA699",
"h.	c #AEBAE79D9658",
"j.	c #9E79E38D8617",
"k.	c #5965A2894924",
"l.	c #28A27DF71040",
"z.	c #104061850820",
"x.	c #186165950820",
"c.	c #000041030000",
"v.	c #082045140000",
"b.	c #69A67DF769A6",
"n.	c #D75CE79DD75C",
"m.	c #A699C30B9E79",
"M.	c #618586175965",
"N.	c #618592485144",
"B.	c #8E38BEFB8617",
"V.	c #8E38BAEA79E7",
"C.	c #8617BAEA71C6",
"Z.	c #79E7BAEA69A6",
"A.	c #69A6B2CA5965",
"S.	c #186161850820",
"D.	c #10405D750820",
"F.	c #104055550820",
"G.	c #000038E30000",
"H.	c #082051440000",
"J.	c #000020810000",
"K.	c #9E79AAAA9E79",
"L.	c #DF7DEFBEDF7D",
"P.	c #E79DF7DEDF7D",
"I.	c #AEBACF3CA699",
"U.	c #8617BEFB79E7",
"Y.	c #9E79D75C9658",
"T.	c #9E79D75C8E38",
"R.	c #8E38CF3C8617",
"E.	c #71C6AEBA6185",
"W.	c #000034D30000",
"Q.	c #00001C710000",
"!.	c #C71BC30BB6DA",
"~.	c #49245D754924",
"^.	c #C71BDB6CC71B",
"/.	c #EFBEFBEEE79D",
"(.	c #A699C71B9E79",
").	c #9658D34C8617",
"_.	c #A699E79D9E79",
"`.	c #A699E79D9658",
"'.	c #9E79E38D9658",
"].	c #79E7BEFB69A6",
"[.	c #20818A281861",
"{.	c #208182071040",
"}.	c #186179E71040",
"|.	c #000008200000",
" X	c #BEFBB6DAB6DA",
".X	c #B6DAB2CAAEBA",
"XX	c #B6DAAEBAAEBA",
"oX	c #AEBAAAAAA699",
"OX	c #AEBAA2899E79",
"+X	c #A6999E799E79",
"@X	c #8E38AAAA71C6",
"#X	c #71C6BAEA6185",
"$X	c #9658B6DA9658",
"%X	c #D75CEFBED75C",
"&X	c #9658BEFB9658",
"*X	c #8E38D34C79E7",
"=X	c #9E79E38D8E38",
"-X	c #9658DF7D8E38",
";X	c #8E38DF7D8617",
":X	c #69A6BAEA6185",
">X	c #18616DB61040",
",X	c #18617DF71040",
"<X	c #186175D61040",
"1X	c #104071C60820",
"2X	c #082055550820",
"3X	c #082049240000",
"4X	c #00003CF30000",
"5X	c #9E7996588E38",
"6X	c #AEBAA6999E79",
"7X	c #A699A2899E79",
"8X	c #AEBA79E769A6",
"9X	c #A6998A288617",
"0X	c #A6999A699658",
"qX	c #A6996DB669A6",
"wX	c #9E797DF769A6",
"eX	c #5965CF3C38E3",
"rX	c #5965BAEA38E3",
"tX	c #8E38B6DA8617",
"yX	c #8617AEBA79E7",
"uX	c #79E7C30B69A6",
"iX	c #8E38DF7D79E7",
"pX	c #8E38DB6C79E7",
"aX	c #8617DB6C71C6",
"sX	c #79E7D75C71C6",
"dX	c #6185B2CA5144",
"fX	c #186171C60820",
"gX	c #08205D750820",
"hX	c #000045140000",
"jX	c #514469A66185",
"kX	c #8E3886176185",
"lX	c #9E799E799658",
"zX	c #71C69E796185",
"xX	c #5144CB2B30C2",
"cX	c #4924BEFB28A2",
"vX	c #71C6BEFB69A6",
"bX	c #30C296581861",
"nX	c #38E3924828A2",
"mX	c #30C292482081",
"MX	c #41039E7938E3",
"NX	c #41039E7930C2",
"BX	c #28A271C62081",
"VX	c #000028A20000",
"CX	c #000024920000",
"ZX	c #410345144103",
"AX	c #4103410338E3",
"SX	c #49244D344103",
"DX	c #71C66DB669A6",
"FX	c #71C66DB66185",
"GX	c #59655D755144",
"HX	c #79E775D669A6",
"JX	c #79E779E769A6",
"KX	c #596559655144",
"LX	c #69A665955965",
"PX	c #69A696585965",
"IX	c #4924C71B30C2",
"UX	c #4103B2CA28A2",
"YX	c #28A28E381861",
"TX	c #38E3BEFB28A2",
"RX	c #38E3BAEA2081",
"EX	c #30C2AEBA2081",
"WX	c #28A2AAAA1861",
"QX	c #186186171040",
"!X	c #51444D344924",
"~X	c #492449244103",
"^X	c #514451444924",
"/X	c #69A669A65965",
"(X	c #69A661855965",
")X	c #492479E74103",
"_X	c #4103B6DA28A2",
"`X	c #28A29A691861",
"'X	c #28A296581861",
"]X	c #30C2BAEA2081",
"[X	c #30C2B6DA2081",
"{X	c #186182071040",
"}X	c #082055550000",
"|X	c #000051440000",
" o	c #00004D340000",
".o	c #000049240000",
"Xo	c #514459655144",
"oo	c #8617861779E7",
"Oo	c #79E775D671C6",
"+o	c #71C67DF769A6",
"@o	c #20818E381861",
"#o	c #28A2A2891861",
"$o	c #28A2B6DA2081",
"%o	c #28A2B6DA1861",
"&o	c #10407DF70820",
"*o	c #082065950820",
"=o	c #082061850000",
"-o	c #000059650000",
";o	c #000010400000",
":o	c #596561855965",
">o	c #86178E388617",
",o	c #9E7992488E38",
"<o	c #965892488617",
"1o	c #8E3882078617",
"2o	c #71C6861769A6",
"3o	c #30C2AAAA2081",
"4o	c #28A2B2CA1861",
"5o	c #2081B2CA1861",
"6o	c #104079E70820",
"7o	c #082075D60820",
"8o	c #082079E70820",
"9o	c #08206DB60820",
"0o	c #000014510000",
"qo	c #10407DF71040",
"wo	c #2081AAAA1861",
"eo	c #104086170820",
"ro	c #082069A60820",
"to	c #000018610000",
"yo	c #10408A281040",
"uo	c #08207DF70820",
"io	c #000055550000",
"                                                                                                ",
"                                                                                                ",
"                                                                                                ",
"                                                                                                ",
"                                                                                                ",
"                                                                                                ",
"                                                                                                ",
"                                                                                                ",
"                                                                                                ",
"                . X X X X X o o O O + + @ # . . $ % & * * = - ; : > , < 1 2 3 4                 ",
"              . X X X X X o o O O + + @ # . . $ & & * * = - ; : > , 5 6 7 8 9 0                 ",
"              X X q w w w w w w e e r t t y u i i p p a a s d f f g h j k l z x c               ",
"              X X w v b n m M N B v N e e r t t i i i d f f g h g h h k V C z Z c c             ",
"              X X M A S A D N l w w e e y u u i a a a s d f f g h h j V V F 2 G c c             ",
"              X X w D H m B J J t l m m m e N v l y M B K i p v a a L V F P I Z c c             ",
"              X o w D U e e N t t y u u i p p a s s d d f g h h j j L F F Y G T c c             ",
"              o o w n J B N l v M m e J r p l s s w f i p h h j R R F F Y E Z v c c             ",
"              O O w M v r t t y u u i p p a s s d d f g h h j R R F F Y E E Z W c c c           ",
"              O Q B m J n v w m e e N t l w y d e r p p a t w u d d Y E E ! ~ W c c c           ",
"              Q + r B w t y u u i p p a s s d f f g h h j R R V V F E E ! ^ 3 / c c c           ",
"              + @ r w t w u u i p p a s s d f f g h h j R R V V F P E ! ^ ^ W / c c c           ",
"              @ + l B y B e J r t v y y B e i N p a y s y d i F i E ! ^ ^ ( W ) c c c           ",
"              _ . t e u u i p p a s s d f f g h h j j R V V F P P ! ^ ^ ( ` ' ] c c c           ",
"              . . y r u i p p t y y d f i g h h j R R V V F P P E [ ^ ( ` ` 0 ] c c c           ",
"              . $ u t i N t l y y w e i i t t a y y u i f g P E [ [ ( ` ` { 0 } c c c           ",
"              $ % u i i p a s s d f f g h h j R R V V p |  ...X.o.O.+.@.#.$.%.4 c c c           ",
"              % & i p p a s s d f f g h h j R R V i & &.*.=.-.;.:.>.,.<.1.1.2.3.4.c c           ",
"              & * p p a s s d d f g h h j R R i 5.*.*.*.6.7.8.9.0.q.<.w.e.1.r.t.y.u.4.          ",
"              * * p a s s d f f g h h j R R V i.p.a.s.s.d.f.g.h.j.k.<.l.w.z.#.x.z.c.v.          ",
"              * = a s s d d f g h h j R R V V b.*.n.m.M.N.B.V.C.Z.A.x.S.D.F.G.H.G.y.J.          ",
"              = - s s M J J N v l n M w m e N K.L.&.P.I.U.Y.Y.T.R.E.D.S.z.D.2.2.G.W.Q.          ",
"              - !.J d f f g h h j L L F F Y E ~.^.&./.(.)._._.`.'.].w.[.{.}.D.v.G.y.|.          ",
"              1 : ,  X< 6 .XXX1 1 oX8 8 OX+X+X@X#X$X%X&X*X=X=X-X;X:X>X,X<X1X2X3X4XW.|.          ",
"                5XXX1 oXoX8 6X7XK 8X9X0X~ qXwXZ eXrXtXyXuXiXpXaXsXdXz.fXgX3X4XG.G.hXc           ",
"                  jXkXlXlX2 I 5XG Z Z v W W v / zXxXcXvXbXnXmXMXNXBXu.VXJ.VXu.W.G.CXc           ",
"                    c c c c ZXAXSXDXFXf GXHXJXKXLXPXIXUXYXTXRXEXWXQXhX3Xc.4X4X4XCXc c           ",
"                      c c c !X~Xp p ^X^Xp p s p /X(X)X_X`X'XRX]X[X{X}X}X|X o.oW.c c c           ",
"                    Xol oo~ x 3 W W ooB 0 0 ] l ] w Oo+oUX@o#o$o%o&o*o*o=o-o;oc c c             ",
"                    :o>o3 I ,oG <oZ 3 3 M W W 0 / N 1o] 2o3oQX4o5o6o7o8o9o0oc c c               ",
"                          c c c c c c c c c c c c c c c c 0oz.qowo6oeorotoc c                   ",
"                            c c c c c c c c c c c c c c c c c gXyouo*oc c                       ",
"                                  c c c c c c c c c c c c c c c *oio                            ",
"                                                                                                ",
"                                                                                                ",
"                                                                                                ",
"                                                                                                ",
"                                                                                                ",
"                                                                                                "};
